# xmcd
#
# Track frame offsets:
#   150
#   11733
#   23480
#   35780
#   48742
#   62358
#   72622
#   82018
#   95703
#   112611
#   128322
#   141280
#   152415
#   162231
#   173277
#   183173
#   197107
#   207081
#   219814
#   229489
#   239604
#   251093
#   266288
#   279806
#
# Disc length: 3886 seconds
#
# Revision: 0
# Processed by: cddbd v1.4PL0 Copyright (c) Steve Scherf et al.
# Submitted via: uFREEDB 1.6.0
#
DISCID=410f2c18
DTITLE=Cline, Patsy - 12 Greatest Hits
DYEAR=1988
DGENRE=Country
TTITLE0=Walking After Midnight
TTITLE1=Sweet Dreams
TTITLE2=Crazy
TTITLE3=I Fall To Pieces
TTITLE4=So Wrong
TTITLE5=Strange
TTITLE6=Back In Baby's Arms
TTITLE7=She's Got You
TTITLE8=Faded Love
TTITLE9=Why Can't He Be You
TTITLE10=You're Stronger Than Me
TTITLE11=Leavin' On Your Mind
TTITLE12=(Bonus)
TTITLE13=(Bonus)
TTITLE14=(Bonus)
TTITLE15=(Bonus)
TTITLE16=(Bonus)
TTITLE17=(Bonus)
TTITLE18=(Bonus)
TTITLE19=(Bonus)
TTITLE20=(Bonus)
TTITLE21=(Bonus)
TTITLE22=(Bonus)
TTITLE23=(Bonus)
EXTD=
EXTT0=
EXTT1=
EXTT2=
EXTT3=
EXTT4=
EXTT5=
EXTT6=
EXTT7=
EXTT8=
EXTT9=
EXTT10=
EXTT11=
EXTT12=
EXTT13=
EXTT14=
EXTT15=
EXTT16=
EXTT17=
EXTT18=
EXTT19=
EXTT20=
EXTT21=
EXTT22=
EXTT23=
PLAYORDER=
